<mxfile host="app.diagrams.net" agent="Mozilla/5.0 (Windows NT 10.0; Win64; x64) AppleWebKit/537.36 (KHTML, like Gecko) Chrome/128.0.0.0 Safari/537.36" version="24.7.12">
  <diagram name="第 1 页" id="Gt02djALePsNuzyTQ-vI">
    <mxGraphModel dx="2261" dy="780" grid="1" gridSize="10" guides="1" tooltips="1" connect="1" arrows="1" fold="1" page="1" pageScale="1" pageWidth="827" pageHeight="1169" math="0" shadow="0">
      <root>
        <mxCell id="0" />
        <mxCell id="1" parent="0" />
        <mxCell id="FLvSi5OSzPN4O0kKnT5f-75" value="" style="rounded=0;whiteSpace=wrap;html=1;" vertex="1" parent="1">
          <mxGeometry x="-410" y="805" width="880" height="340" as="geometry" />
        </mxCell>
        <mxCell id="FLvSi5OSzPN4O0kKnT5f-64" value="" style="rounded=0;whiteSpace=wrap;html=1;" vertex="1" parent="1">
          <mxGeometry x="-420" y="701" width="890" height="90" as="geometry" />
        </mxCell>
        <mxCell id="FLvSi5OSzPN4O0kKnT5f-9" style="edgeStyle=orthogonalEdgeStyle;rounded=0;orthogonalLoop=1;jettySize=auto;html=1;entryX=0;entryY=0.5;entryDx=0;entryDy=0;" edge="1" parent="1" source="FLvSi5OSzPN4O0kKnT5f-1" target="FLvSi5OSzPN4O0kKnT5f-8">
          <mxGeometry relative="1" as="geometry" />
        </mxCell>
        <mxCell id="FLvSi5OSzPN4O0kKnT5f-49" style="edgeStyle=orthogonalEdgeStyle;rounded=0;orthogonalLoop=1;jettySize=auto;html=1;entryX=0.5;entryY=0;entryDx=0;entryDy=0;" edge="1" parent="1" source="FLvSi5OSzPN4O0kKnT5f-1" target="FLvSi5OSzPN4O0kKnT5f-48">
          <mxGeometry relative="1" as="geometry" />
        </mxCell>
        <mxCell id="FLvSi5OSzPN4O0kKnT5f-1" value="&lt;span style=&quot;font-family:&#39;微软雅黑&#39;; font-size:18pt; font-weight:600; color:#454545;&quot;&gt;Java 内存模型 JMM&lt;/span&gt;" style="rounded=1;whiteSpace=wrap;html=1;" vertex="1" parent="1">
          <mxGeometry x="200" y="200" width="240" height="40" as="geometry" />
        </mxCell>
        <mxCell id="FLvSi5OSzPN4O0kKnT5f-2" value="&lt;span style=&quot;font-family: 微软雅黑; font-size: 12pt;&quot;&gt;是一个规范&lt;/span&gt;" style="rounded=1;whiteSpace=wrap;html=1;" vertex="1" parent="1">
          <mxGeometry x="260" y="80" width="120" height="40" as="geometry" />
        </mxCell>
        <mxCell id="FLvSi5OSzPN4O0kKnT5f-4" value="是什么" style="text;html=1;align=center;verticalAlign=middle;whiteSpace=wrap;rounded=0;" vertex="1" parent="1">
          <mxGeometry x="270" y="160" width="60" height="30" as="geometry" />
        </mxCell>
        <mxCell id="FLvSi5OSzPN4O0kKnT5f-5" value="" style="shape=flexArrow;endArrow=classic;html=1;rounded=0;exitX=0.5;exitY=0;exitDx=0;exitDy=0;entryX=0.5;entryY=1;entryDx=0;entryDy=0;" edge="1" parent="1" source="FLvSi5OSzPN4O0kKnT5f-1" target="FLvSi5OSzPN4O0kKnT5f-2">
          <mxGeometry width="50" height="50" relative="1" as="geometry">
            <mxPoint x="420" y="190" as="sourcePoint" />
            <mxPoint x="470" y="140" as="targetPoint" />
          </mxGeometry>
        </mxCell>
        <mxCell id="FLvSi5OSzPN4O0kKnT5f-6" value="&lt;p style=&quot;margin: 0px; line-height: 100%;&quot;&gt;&lt;span style=&quot;font-family:&#39;微软雅黑&#39;; font-size:10pt; color:#454545;&quot;&gt;保证：&lt;/span&gt;&lt;/p&gt;&lt;br&gt;&lt;p style=&quot;margin: 0px; line-height: 100%;&quot;&gt;&lt;span style=&quot;font-family:&#39;微软雅黑&#39;; font-size:10pt; color:#454545;&quot;&gt;  1. 多线程编程在 Java 中变得更加安全、可预测和一致&lt;/span&gt;&lt;/p&gt;&lt;p style=&quot;margin: 0px; line-height: 100%;&quot;&gt;&lt;span style=&quot;color: rgb(69, 69, 69); font-family: 微软雅黑; font-size: 10pt; background-color: initial;&quot;&gt;2. 避免因为不同硬件，系统的差异带来的不确定性&lt;/span&gt;&lt;/p&gt;" style="rounded=0;whiteSpace=wrap;html=1;align=left;" vertex="1" parent="1">
          <mxGeometry x="440" y="60" width="350" height="80" as="geometry" />
        </mxCell>
        <mxCell id="FLvSi5OSzPN4O0kKnT5f-7" value="" style="endArrow=classic;startArrow=classic;html=1;rounded=0;exitX=1;exitY=0.5;exitDx=0;exitDy=0;entryX=0;entryY=0.5;entryDx=0;entryDy=0;" edge="1" parent="1" source="FLvSi5OSzPN4O0kKnT5f-2" target="FLvSi5OSzPN4O0kKnT5f-6">
          <mxGeometry width="50" height="50" relative="1" as="geometry">
            <mxPoint x="460" y="190" as="sourcePoint" />
            <mxPoint x="510" y="140" as="targetPoint" />
          </mxGeometry>
        </mxCell>
        <mxCell id="FLvSi5OSzPN4O0kKnT5f-14" style="edgeStyle=orthogonalEdgeStyle;rounded=0;orthogonalLoop=1;jettySize=auto;html=1;entryX=0;entryY=0.5;entryDx=0;entryDy=0;" edge="1" parent="1" source="FLvSi5OSzPN4O0kKnT5f-8" target="FLvSi5OSzPN4O0kKnT5f-10">
          <mxGeometry relative="1" as="geometry" />
        </mxCell>
        <mxCell id="FLvSi5OSzPN4O0kKnT5f-15" style="edgeStyle=orthogonalEdgeStyle;rounded=0;orthogonalLoop=1;jettySize=auto;html=1;entryX=0;entryY=0.5;entryDx=0;entryDy=0;" edge="1" parent="1" source="FLvSi5OSzPN4O0kKnT5f-8" target="FLvSi5OSzPN4O0kKnT5f-11">
          <mxGeometry relative="1" as="geometry" />
        </mxCell>
        <mxCell id="FLvSi5OSzPN4O0kKnT5f-16" style="edgeStyle=orthogonalEdgeStyle;rounded=0;orthogonalLoop=1;jettySize=auto;html=1;entryX=0;entryY=0.5;entryDx=0;entryDy=0;" edge="1" parent="1" source="FLvSi5OSzPN4O0kKnT5f-8" target="FLvSi5OSzPN4O0kKnT5f-12">
          <mxGeometry relative="1" as="geometry" />
        </mxCell>
        <mxCell id="FLvSi5OSzPN4O0kKnT5f-17" style="edgeStyle=orthogonalEdgeStyle;rounded=0;orthogonalLoop=1;jettySize=auto;html=1;entryX=0;entryY=0.5;entryDx=0;entryDy=0;" edge="1" parent="1" source="FLvSi5OSzPN4O0kKnT5f-8" target="FLvSi5OSzPN4O0kKnT5f-13">
          <mxGeometry relative="1" as="geometry" />
        </mxCell>
        <mxCell id="FLvSi5OSzPN4O0kKnT5f-8" value="&lt;span style=&quot;font-family: 微软雅黑; color: rgb(69, 69, 69);&quot;&gt;&lt;font style=&quot;font-size: 16px;&quot;&gt;解决什么问题&lt;/font&gt;&lt;/span&gt;" style="rounded=1;whiteSpace=wrap;html=1;" vertex="1" parent="1">
          <mxGeometry x="360" y="300" width="160" height="40" as="geometry" />
        </mxCell>
        <mxCell id="FLvSi5OSzPN4O0kKnT5f-10" value="内存可见性" style="rounded=1;whiteSpace=wrap;html=1;" vertex="1" parent="1">
          <mxGeometry x="600" y="230" width="80" height="40" as="geometry" />
        </mxCell>
        <mxCell id="FLvSi5OSzPN4O0kKnT5f-11" value="有序性" style="rounded=1;whiteSpace=wrap;html=1;" vertex="1" parent="1">
          <mxGeometry x="600" y="280" width="80" height="40" as="geometry" />
        </mxCell>
        <mxCell id="FLvSi5OSzPN4O0kKnT5f-12" value="原子性操作" style="rounded=1;whiteSpace=wrap;html=1;" vertex="1" parent="1">
          <mxGeometry x="600" y="330" width="80" height="40" as="geometry" />
        </mxCell>
        <mxCell id="FLvSi5OSzPN4O0kKnT5f-13" value="跨平台一致性" style="rounded=1;whiteSpace=wrap;html=1;" vertex="1" parent="1">
          <mxGeometry x="600" y="380" width="80" height="40" as="geometry" />
        </mxCell>
        <mxCell id="FLvSi5OSzPN4O0kKnT5f-26" style="edgeStyle=orthogonalEdgeStyle;rounded=0;orthogonalLoop=1;jettySize=auto;html=1;entryX=0;entryY=0.5;entryDx=0;entryDy=0;" edge="1" parent="1" source="FLvSi5OSzPN4O0kKnT5f-18" target="FLvSi5OSzPN4O0kKnT5f-19">
          <mxGeometry relative="1" as="geometry" />
        </mxCell>
        <mxCell id="FLvSi5OSzPN4O0kKnT5f-47" style="edgeStyle=orthogonalEdgeStyle;rounded=0;orthogonalLoop=1;jettySize=auto;html=1;entryX=0;entryY=0.5;entryDx=0;entryDy=0;" edge="1" parent="1" source="FLvSi5OSzPN4O0kKnT5f-18" target="FLvSi5OSzPN4O0kKnT5f-34">
          <mxGeometry relative="1" as="geometry" />
        </mxCell>
        <mxCell id="FLvSi5OSzPN4O0kKnT5f-18" value="&lt;span style=&quot;font-family: 微软雅黑; color: rgb(69, 69, 69);&quot;&gt;&lt;font style=&quot;font-size: 16px;&quot;&gt;问题是怎么产生的&lt;/font&gt;&lt;/span&gt;" style="rounded=1;whiteSpace=wrap;html=1;" vertex="1" parent="1">
          <mxGeometry x="790" y="300" width="160" height="40" as="geometry" />
        </mxCell>
        <mxCell id="FLvSi5OSzPN4O0kKnT5f-27" style="edgeStyle=orthogonalEdgeStyle;rounded=0;orthogonalLoop=1;jettySize=auto;html=1;entryX=0;entryY=0.5;entryDx=0;entryDy=0;" edge="1" parent="1" source="FLvSi5OSzPN4O0kKnT5f-19" target="FLvSi5OSzPN4O0kKnT5f-20">
          <mxGeometry relative="1" as="geometry" />
        </mxCell>
        <mxCell id="FLvSi5OSzPN4O0kKnT5f-28" style="edgeStyle=orthogonalEdgeStyle;rounded=0;orthogonalLoop=1;jettySize=auto;html=1;entryX=0;entryY=0.5;entryDx=0;entryDy=0;" edge="1" parent="1" source="FLvSi5OSzPN4O0kKnT5f-19" target="FLvSi5OSzPN4O0kKnT5f-21">
          <mxGeometry relative="1" as="geometry" />
        </mxCell>
        <mxCell id="FLvSi5OSzPN4O0kKnT5f-19" value="CPU层面" style="rounded=1;whiteSpace=wrap;html=1;" vertex="1" parent="1">
          <mxGeometry x="990" y="240" width="80" height="40" as="geometry" />
        </mxCell>
        <mxCell id="FLvSi5OSzPN4O0kKnT5f-30" style="edgeStyle=orthogonalEdgeStyle;rounded=0;orthogonalLoop=1;jettySize=auto;html=1;entryX=0;entryY=0.5;entryDx=0;entryDy=0;" edge="1" parent="1" source="FLvSi5OSzPN4O0kKnT5f-20" target="FLvSi5OSzPN4O0kKnT5f-22">
          <mxGeometry relative="1" as="geometry" />
        </mxCell>
        <mxCell id="FLvSi5OSzPN4O0kKnT5f-31" style="edgeStyle=orthogonalEdgeStyle;rounded=0;orthogonalLoop=1;jettySize=auto;html=1;entryX=0;entryY=0.5;entryDx=0;entryDy=0;" edge="1" parent="1" source="FLvSi5OSzPN4O0kKnT5f-20" target="FLvSi5OSzPN4O0kKnT5f-23">
          <mxGeometry relative="1" as="geometry" />
        </mxCell>
        <mxCell id="FLvSi5OSzPN4O0kKnT5f-32" style="edgeStyle=orthogonalEdgeStyle;rounded=0;orthogonalLoop=1;jettySize=auto;html=1;entryX=0;entryY=0.5;entryDx=0;entryDy=0;" edge="1" parent="1" source="FLvSi5OSzPN4O0kKnT5f-20" target="FLvSi5OSzPN4O0kKnT5f-24">
          <mxGeometry relative="1" as="geometry" />
        </mxCell>
        <mxCell id="FLvSi5OSzPN4O0kKnT5f-20" value="CPU缓存机制" style="rounded=1;whiteSpace=wrap;html=1;" vertex="1" parent="1">
          <mxGeometry x="1120" y="200" width="90" height="40" as="geometry" />
        </mxCell>
        <mxCell id="FLvSi5OSzPN4O0kKnT5f-33" style="edgeStyle=orthogonalEdgeStyle;rounded=0;orthogonalLoop=1;jettySize=auto;html=1;entryX=0;entryY=0.5;entryDx=0;entryDy=0;" edge="1" parent="1" source="FLvSi5OSzPN4O0kKnT5f-21" target="FLvSi5OSzPN4O0kKnT5f-25">
          <mxGeometry relative="1" as="geometry" />
        </mxCell>
        <mxCell id="FLvSi5OSzPN4O0kKnT5f-21" value="指令重排序" style="rounded=1;whiteSpace=wrap;html=1;" vertex="1" parent="1">
          <mxGeometry x="1120" y="300" width="90" height="40" as="geometry" />
        </mxCell>
        <mxCell id="FLvSi5OSzPN4O0kKnT5f-22" value="多级缓存架构" style="rounded=0;whiteSpace=wrap;html=1;" vertex="1" parent="1">
          <mxGeometry x="1260" y="110" width="119" height="40" as="geometry" />
        </mxCell>
        <mxCell id="FLvSi5OSzPN4O0kKnT5f-23" value="每个处理器核心有自己的独立缓存" style="rounded=0;whiteSpace=wrap;html=1;" vertex="1" parent="1">
          <mxGeometry x="1260" y="170" width="119" height="40" as="geometry" />
        </mxCell>
        <mxCell id="FLvSi5OSzPN4O0kKnT5f-24" value="缓存一致性延迟" style="rounded=0;whiteSpace=wrap;html=1;" vertex="1" parent="1">
          <mxGeometry x="1260" y="230" width="119" height="40" as="geometry" />
        </mxCell>
        <mxCell id="FLvSi5OSzPN4O0kKnT5f-25" value="CPU为了效率，可能改变指令顺序的" style="rounded=0;whiteSpace=wrap;html=1;" vertex="1" parent="1">
          <mxGeometry x="1260" y="300" width="119" height="40" as="geometry" />
        </mxCell>
        <mxCell id="FLvSi5OSzPN4O0kKnT5f-41" style="edgeStyle=orthogonalEdgeStyle;rounded=0;orthogonalLoop=1;jettySize=auto;html=1;" edge="1" parent="1" source="FLvSi5OSzPN4O0kKnT5f-34" target="FLvSi5OSzPN4O0kKnT5f-35">
          <mxGeometry relative="1" as="geometry" />
        </mxCell>
        <mxCell id="FLvSi5OSzPN4O0kKnT5f-42" style="edgeStyle=orthogonalEdgeStyle;rounded=0;orthogonalLoop=1;jettySize=auto;html=1;entryX=0;entryY=0.5;entryDx=0;entryDy=0;" edge="1" parent="1" source="FLvSi5OSzPN4O0kKnT5f-34" target="FLvSi5OSzPN4O0kKnT5f-36">
          <mxGeometry relative="1" as="geometry" />
        </mxCell>
        <mxCell id="FLvSi5OSzPN4O0kKnT5f-43" style="edgeStyle=orthogonalEdgeStyle;rounded=0;orthogonalLoop=1;jettySize=auto;html=1;entryX=0;entryY=0.5;entryDx=0;entryDy=0;" edge="1" parent="1" source="FLvSi5OSzPN4O0kKnT5f-34" target="FLvSi5OSzPN4O0kKnT5f-37">
          <mxGeometry relative="1" as="geometry" />
        </mxCell>
        <mxCell id="FLvSi5OSzPN4O0kKnT5f-34" value="编译器层面" style="rounded=1;whiteSpace=wrap;html=1;" vertex="1" parent="1">
          <mxGeometry x="990" y="420" width="80" height="40" as="geometry" />
        </mxCell>
        <mxCell id="FLvSi5OSzPN4O0kKnT5f-44" style="edgeStyle=orthogonalEdgeStyle;rounded=0;orthogonalLoop=1;jettySize=auto;html=1;" edge="1" parent="1" source="FLvSi5OSzPN4O0kKnT5f-35" target="FLvSi5OSzPN4O0kKnT5f-38">
          <mxGeometry relative="1" as="geometry" />
        </mxCell>
        <mxCell id="FLvSi5OSzPN4O0kKnT5f-35" value="指令重排序&lt;br&gt;（Instruction Reordering）" style="rounded=1;whiteSpace=wrap;html=1;" vertex="1" parent="1">
          <mxGeometry x="1110" y="380" width="150" height="40" as="geometry" />
        </mxCell>
        <mxCell id="FLvSi5OSzPN4O0kKnT5f-45" style="edgeStyle=orthogonalEdgeStyle;rounded=0;orthogonalLoop=1;jettySize=auto;html=1;entryX=0;entryY=0.5;entryDx=0;entryDy=0;" edge="1" parent="1" source="FLvSi5OSzPN4O0kKnT5f-36" target="FLvSi5OSzPN4O0kKnT5f-39">
          <mxGeometry relative="1" as="geometry" />
        </mxCell>
        <mxCell id="FLvSi5OSzPN4O0kKnT5f-36" value="寄存器优化" style="rounded=1;whiteSpace=wrap;html=1;" vertex="1" parent="1">
          <mxGeometry x="1110" y="440" width="150" height="40" as="geometry" />
        </mxCell>
        <mxCell id="FLvSi5OSzPN4O0kKnT5f-46" style="edgeStyle=orthogonalEdgeStyle;rounded=0;orthogonalLoop=1;jettySize=auto;html=1;" edge="1" parent="1" source="FLvSi5OSzPN4O0kKnT5f-37" target="FLvSi5OSzPN4O0kKnT5f-40">
          <mxGeometry relative="1" as="geometry" />
        </mxCell>
        <mxCell id="FLvSi5OSzPN4O0kKnT5f-37" value="清除不必要的内存读" style="rounded=1;whiteSpace=wrap;html=1;" vertex="1" parent="1">
          <mxGeometry x="1110" y="500" width="150" height="40" as="geometry" />
        </mxCell>
        <mxCell id="FLvSi5OSzPN4O0kKnT5f-38" value="为了优化程序执行效率，编译器可能重新排列代码的指令顺序" style="rounded=0;whiteSpace=wrap;html=1;" vertex="1" parent="1">
          <mxGeometry x="1300" y="380" width="330" height="40" as="geometry" />
        </mxCell>
        <mxCell id="FLvSi5OSzPN4O0kKnT5f-39" value="编译器有时会将变量分配到CPU的寄存器，而不是反复访问主存" style="rounded=0;whiteSpace=wrap;html=1;" vertex="1" parent="1">
          <mxGeometry x="1300" y="440" width="340" height="40" as="geometry" />
        </mxCell>
        <mxCell id="FLvSi5OSzPN4O0kKnT5f-40" value="编译器优化，可能认为某些内存操作不会在多线程共享，&lt;br&gt;因此会消除一些显式或隐式的同步操作（如内存屏障）" style="rounded=0;whiteSpace=wrap;html=1;" vertex="1" parent="1">
          <mxGeometry x="1300" y="500" width="340" height="40" as="geometry" />
        </mxCell>
        <mxCell id="FLvSi5OSzPN4O0kKnT5f-78" style="rounded=0;orthogonalLoop=1;jettySize=auto;html=1;entryX=0.5;entryY=0;entryDx=0;entryDy=0;exitX=0;exitY=1;exitDx=0;exitDy=0;" edge="1" parent="1" source="FLvSi5OSzPN4O0kKnT5f-48" target="FLvSi5OSzPN4O0kKnT5f-50">
          <mxGeometry relative="1" as="geometry" />
        </mxCell>
        <mxCell id="FLvSi5OSzPN4O0kKnT5f-48" value="&lt;span style=&quot;font-family: 微软雅黑; color: rgb(69, 69, 69);&quot;&gt;&lt;font style=&quot;font-size: 16px;&quot;&gt;如何解决的&lt;/font&gt;&lt;/span&gt;" style="rounded=1;whiteSpace=wrap;html=1;" vertex="1" parent="1">
          <mxGeometry x="240" y="480" width="160" height="40" as="geometry" />
        </mxCell>
        <mxCell id="FLvSi5OSzPN4O0kKnT5f-56" style="edgeStyle=orthogonalEdgeStyle;rounded=0;orthogonalLoop=1;jettySize=auto;html=1;entryX=0.5;entryY=0;entryDx=0;entryDy=0;exitX=0.5;exitY=1;exitDx=0;exitDy=0;" edge="1" parent="1" source="FLvSi5OSzPN4O0kKnT5f-50" target="FLvSi5OSzPN4O0kKnT5f-53">
          <mxGeometry relative="1" as="geometry" />
        </mxCell>
        <mxCell id="FLvSi5OSzPN4O0kKnT5f-57" style="edgeStyle=orthogonalEdgeStyle;rounded=0;orthogonalLoop=1;jettySize=auto;html=1;entryX=0.5;entryY=0;entryDx=0;entryDy=0;exitX=0.5;exitY=1;exitDx=0;exitDy=0;" edge="1" parent="1" source="FLvSi5OSzPN4O0kKnT5f-50" target="FLvSi5OSzPN4O0kKnT5f-54">
          <mxGeometry relative="1" as="geometry" />
        </mxCell>
        <mxCell id="FLvSi5OSzPN4O0kKnT5f-58" style="edgeStyle=orthogonalEdgeStyle;rounded=0;orthogonalLoop=1;jettySize=auto;html=1;entryX=0.5;entryY=0;entryDx=0;entryDy=0;exitX=0.5;exitY=1;exitDx=0;exitDy=0;" edge="1" parent="1" source="FLvSi5OSzPN4O0kKnT5f-50" target="FLvSi5OSzPN4O0kKnT5f-55">
          <mxGeometry relative="1" as="geometry" />
        </mxCell>
        <mxCell id="FLvSi5OSzPN4O0kKnT5f-50" value="&lt;span style=&quot;font-family: 微软雅黑; color: rgb(69, 69, 69);&quot;&gt;&lt;font style=&quot;font-size: 16px;&quot;&gt;JMM提供了如下保证&lt;/font&gt;&lt;/span&gt;" style="rounded=1;whiteSpace=wrap;html=1;" vertex="1" parent="1">
          <mxGeometry x="-19.5" y="540" width="160" height="40" as="geometry" />
        </mxCell>
        <mxCell id="FLvSi5OSzPN4O0kKnT5f-51" value="" style="shape=curlyBracket;whiteSpace=wrap;html=1;rounded=1;flipH=1;labelPosition=right;verticalLabelPosition=middle;align=left;verticalAlign=middle;" vertex="1" parent="1">
          <mxGeometry x="690" y="230" width="20" height="180" as="geometry" />
        </mxCell>
        <mxCell id="FLvSi5OSzPN4O0kKnT5f-52" style="edgeStyle=orthogonalEdgeStyle;rounded=0;orthogonalLoop=1;jettySize=auto;html=1;entryX=0.1;entryY=0.5;entryDx=0;entryDy=0;entryPerimeter=0;" edge="1" parent="1" source="FLvSi5OSzPN4O0kKnT5f-18" target="FLvSi5OSzPN4O0kKnT5f-51">
          <mxGeometry relative="1" as="geometry" />
        </mxCell>
        <mxCell id="FLvSi5OSzPN4O0kKnT5f-53" value="可见性保证" style="rounded=0;whiteSpace=wrap;html=1;" vertex="1" parent="1">
          <mxGeometry x="-179" y="641" width="119" height="40" as="geometry" />
        </mxCell>
        <mxCell id="FLvSi5OSzPN4O0kKnT5f-54" value="有序性保证" style="rounded=0;whiteSpace=wrap;html=1;" vertex="1" parent="1">
          <mxGeometry x="1" y="641" width="119" height="40" as="geometry" />
        </mxCell>
        <mxCell id="FLvSi5OSzPN4O0kKnT5f-55" value="原子性保证" style="rounded=0;whiteSpace=wrap;html=1;" vertex="1" parent="1">
          <mxGeometry x="160" y="641" width="119" height="40" as="geometry" />
        </mxCell>
        <mxCell id="FLvSi5OSzPN4O0kKnT5f-59" value="volatile" style="ellipse;whiteSpace=wrap;html=1;" vertex="1" parent="1">
          <mxGeometry x="-370" y="721" width="70" height="50" as="geometry" />
        </mxCell>
        <mxCell id="FLvSi5OSzPN4O0kKnT5f-60" value="synchronized" style="ellipse;whiteSpace=wrap;html=1;" vertex="1" parent="1">
          <mxGeometry x="-250" y="721" width="100" height="50" as="geometry" />
        </mxCell>
        <mxCell id="FLvSi5OSzPN4O0kKnT5f-61" value="&lt;code&gt;final&lt;/code&gt;" style="ellipse;whiteSpace=wrap;html=1;" vertex="1" parent="1">
          <mxGeometry x="-110" y="721" width="70" height="50" as="geometry" />
        </mxCell>
        <mxCell id="FLvSi5OSzPN4O0kKnT5f-62" value="Happens-before 原则" style="ellipse;whiteSpace=wrap;html=1;" vertex="1" parent="1">
          <mxGeometry x="-10" y="721" width="130" height="50" as="geometry" />
        </mxCell>
        <mxCell id="FLvSi5OSzPN4O0kKnT5f-63" value="原子类&lt;br&gt;（如 AtomInteger）" style="ellipse;whiteSpace=wrap;html=1;" vertex="1" parent="1">
          <mxGeometry x="160" y="721" width="120" height="50" as="geometry" />
        </mxCell>
        <mxCell id="FLvSi5OSzPN4O0kKnT5f-66" value="JMM提供给开发人员的" style="whiteSpace=wrap;html=1;aspect=fixed;" vertex="1" parent="1">
          <mxGeometry x="-500" y="701" width="90" height="90" as="geometry" />
        </mxCell>
        <mxCell id="FLvSi5OSzPN4O0kKnT5f-67" value="编译器" style="ellipse;whiteSpace=wrap;html=1;aspect=fixed;" vertex="1" parent="1">
          <mxGeometry x="-390" y="825" width="60" height="60" as="geometry" />
        </mxCell>
        <mxCell id="FLvSi5OSzPN4O0kKnT5f-68" value="JVM" style="ellipse;whiteSpace=wrap;html=1;aspect=fixed;" vertex="1" parent="1">
          <mxGeometry x="-390" y="897.5" width="60" height="60" as="geometry" />
        </mxCell>
        <mxCell id="FLvSi5OSzPN4O0kKnT5f-69" value="操作系统" style="ellipse;whiteSpace=wrap;html=1;aspect=fixed;" vertex="1" parent="1">
          <mxGeometry x="-390" y="987.5" width="60" height="60" as="geometry" />
        </mxCell>
        <mxCell id="FLvSi5OSzPN4O0kKnT5f-70" value="CPU" style="ellipse;whiteSpace=wrap;html=1;aspect=fixed;" vertex="1" parent="1">
          <mxGeometry x="-390" y="1077.5" width="60" height="60" as="geometry" />
        </mxCell>
        <mxCell id="FLvSi5OSzPN4O0kKnT5f-71" value="&lt;span style=&quot;font-family: 微软雅黑; font-size: 12pt;&quot;&gt;编译器生成正确的字节码（让JVM知道这是 volatile 变量）&lt;/span&gt;" style="rounded=0;whiteSpace=wrap;html=1;" vertex="1" parent="1">
          <mxGeometry x="-290" y="825" width="730" height="50" as="geometry" />
        </mxCell>
        <mxCell id="FLvSi5OSzPN4O0kKnT5f-72" value="&lt;p style=&quot;margin: 0px;&quot;&gt;&lt;span style=&quot;font-family: 微软雅黑; font-size: 12pt;&quot;&gt;JVM执行字节码时，插入内存屏障。&lt;/span&gt;&lt;/p&gt;&lt;br&gt;&lt;p style=&quot;margin: 0px; line-height: 100%;&quot;&gt;&lt;span style=&quot;font-family: 微软雅黑; font-size: 12pt;&quot;&gt;（通过使用平台特定的内存屏障指令，如 x86 架构下，使用 LOCK 前缀的汇编指令 如 LOCK XADD）&lt;/span&gt;&lt;/p&gt;" style="rounded=0;whiteSpace=wrap;html=1;align=left;" vertex="1" parent="1">
          <mxGeometry x="-290" y="897.5" width="730" height="67.5" as="geometry" />
        </mxCell>
        <mxCell id="FLvSi5OSzPN4O0kKnT5f-73" value="&lt;p style=&quot;margin: 0px;&quot;&gt;&lt;font face=&quot;微软雅黑&quot;&gt;&lt;span style=&quot;font-size: 16px;&quot;&gt;操作系统提供系统调用，如&amp;nbsp;&lt;/span&gt;&lt;/font&gt;&lt;span style=&quot;background-color: initial; font-size: 16px;&quot;&gt;&lt;font face=&quot;微软雅黑&quot;&gt;synchronized 重量级锁&lt;/font&gt;&lt;/span&gt;&lt;font style=&quot;background-color: initial;&quot; face=&quot;微软雅黑&quot;&gt;&lt;span style=&quot;font-size: 16px;&quot;&gt;&amp;nbsp;通过 linux 下 的&amp;nbsp;&lt;/span&gt;&lt;/font&gt;&lt;span style=&quot;background-color: initial; font-size: 16px;&quot;&gt;&lt;font face=&quot;微软雅黑&quot;&gt;pthread_mutex_lock 、pthread_mutex_unlock 实现的&lt;/font&gt;&lt;/span&gt;&lt;span style=&quot;font-size: 16px; background-color: initial; font-family: 微软雅黑;&quot;&gt;&amp;nbsp;&lt;/span&gt;&lt;/p&gt;" style="rounded=0;whiteSpace=wrap;html=1;align=left;" vertex="1" parent="1">
          <mxGeometry x="-290" y="987.5" width="730" height="67.5" as="geometry" />
        </mxCell>
        <mxCell id="FLvSi5OSzPN4O0kKnT5f-74" value="&lt;p style=&quot;margin: 0px;&quot;&gt;&lt;span style=&quot;font-family: 微软雅黑; font-size: 12pt;&quot;&gt;CPU 提供的内存屏障指令， 和 缓存一致性协议（如 MESI 协议）&lt;/span&gt;&lt;br&gt;&lt;/p&gt;&lt;p style=&quot;margin: 0px;&quot;&gt;&lt;span style=&quot;font-family: 微软雅黑; font-size: 12pt;&quot;&gt;CAS（Compare-And-Swap）&lt;/span&gt;&lt;/p&gt;" style="rounded=0;whiteSpace=wrap;html=1;align=left;" vertex="1" parent="1">
          <mxGeometry x="-290" y="1077.5" width="730" height="53.5" as="geometry" />
        </mxCell>
        <mxCell id="FLvSi5OSzPN4O0kKnT5f-77" value="JMM 实现依赖于底层的支持" style="rounded=0;whiteSpace=wrap;html=1;" vertex="1" parent="1">
          <mxGeometry x="-500" y="805" width="90" height="340" as="geometry" />
        </mxCell>
        <mxCell id="FLvSi5OSzPN4O0kKnT5f-79" value="&lt;span style=&quot;font-family: 微软雅黑; color: rgb(69, 69, 69);&quot;&gt;&lt;font style=&quot;font-size: 16px;&quot;&gt;JMM提出如下概念&lt;/font&gt;&lt;/span&gt;" style="rounded=1;whiteSpace=wrap;html=1;" vertex="1" parent="1">
          <mxGeometry x="530" y="545" width="160" height="40" as="geometry" />
        </mxCell>
      </root>
    </mxGraphModel>
  </diagram>
</mxfile>
